<?xml version="1.0" encoding="UTF-8"?>
<svg version="1.1" xmlns="http://www.w3.org/2000/svg" width="740" height="740">
<path d="M0 0 C244.2 0 488.4 0 740 0 C740 244.2 740 488.4 740 740 C495.8 740 251.6 740 0 740 C0 495.8 0 251.6 0 0 Z " fill="#000000" transform="translate(0,0)"/>
<path d="M0 0 C2.91364317 -0.00217924 5.82690236 -0.02036655 8.74047852 -0.03930664 C24.45257209 -0.08904248 39.17513373 1.22504585 54.43774414 5.24780273 C55.59193848 5.55089355 56.74613281 5.85398438 57.93530273 6.16625977 C68.87126587 9.15949854 79.06127921 13.24781673 89.25024414 18.18530273 C90.0048291 18.54350098 90.75941406 18.90169922 91.53686523 19.27075195 C111.9023366 29.03563125 129.45759251 43.31087992 143.25024414 61.18530273 C144.17256836 62.32612305 144.17256836 62.32612305 145.11352539 63.48999023 C149.62125072 69.10715572 153.49239303 75.04623905 157.25024414 81.18530273 C157.81227539 82.05670898 158.37430664 82.92811523 158.95336914 83.82592773 C160.25024414 86.18530273 160.25024414 86.18530273 160.25024414 89.18530273 C160.91024414 89.18530273 161.57024414 89.18530273 162.25024414 89.18530273 C162.25024414 90.50530273 162.25024414 91.82530273 162.25024414 93.18530273 C162.91024414 93.18530273 163.57024414 93.18530273 164.25024414 93.18530273 C176.08624867 120.83756111 176.08624867 120.83756111 176.25024414 130.18530273 C174.59921803 131.83632885 172.48938404 131.74706506 170.22680664 132.12280273 C169.20586914 132.29553711 168.18493164 132.46827148 167.13305664 132.64624023 C166.05797852 132.82413086 164.98290039 133.00202148 163.87524414 133.18530273 C161.762912 133.53735809 159.6509156 133.89143548 157.53930664 134.24780273 C156.59780762 134.4037793 155.65630859 134.55975586 154.6862793 134.72045898 C152.12465972 135.15338422 152.12465972 135.15338422 149.25024414 136.18530273 C146.91724589 136.22484508 144.58316225 136.22932006 142.25024414 136.18530273 C139.49009186 129.0089068 139.49009186 129.0089068 138.51196289 125.65014648 C134.41950583 111.85992388 127.00980796 98.55589038 118.25024414 87.18530273 C117.73461914 86.46858398 117.21899414 85.75186523 116.68774414 85.01342773 C108.34394746 73.70116493 98.25651067 64.47434946 86.25024414 57.18530273 C85.65211914 56.81840332 85.05399414 56.45150391 84.43774414 56.07348633 C75.49314691 50.69974002 66.13548482 46.79761546 56.31274414 43.31030273 C55.29027588 42.94098633 54.26780762 42.57166992 53.21435547 42.19116211 C37.46693119 36.83222666 21.70927799 35.62764331 5.18774414 35.74780273 C4.29560211 35.75084412 3.40346008 35.7538855 2.48428345 35.75701904 C-28.98687277 35.91505438 -64.84942299 41.21034081 -89.74975586 62.18530273 C-90.62116211 62.9187793 -91.49256836 63.65225586 -92.39038086 64.40795898 C-119.97058925 88.47870972 -133.35007354 122.97708161 -139.74975586 158.18530273 C-139.9036377 159.010625 -140.05751953 159.83594727 -140.21606445 160.6862793 C-142.77492628 175.06569961 -143.03906034 189.37227941 -143.06225586 203.93530273 C-143.06584106 204.83756592 -143.06942627 205.7398291 -143.07312012 206.66943359 C-143.11027525 224.06278105 -141.88997413 241.22464623 -138.49975586 258.31030273 C-138.282146 259.41011475 -138.06453613 260.50992676 -137.84033203 261.64306641 C-133.48167476 282.81479186 -125.61184315 304.33666818 -111.74975586 321.18530273 C-111.11553711 322.01803711 -110.48131836 322.85077148 -109.82788086 323.70874023 C-101.51929393 334.50990324 -92.16077848 342.85467045 -80.74975586 350.18530273 C-79.41364258 351.05348633 -79.41364258 351.05348633 -78.05053711 351.93920898 C-72.4929008 355.42036579 -66.91650505 357.98404843 -60.74975586 360.18530273 C-59.85401855 360.52561523 -59.85401855 360.52561523 -58.94018555 360.87280273 C-28.84490336 372.27545529 5.73283376 373.6475121 37.2487793 367.53735352 C39.26292701 367.18307186 41.25826312 366.97198163 43.29321289 366.77514648 C47.5819209 366.26913076 51.27078807 364.7966884 55.25024414 363.18530273 C56.53427121 362.7253334 57.82074252 362.27212766 59.10961914 361.82592773 C82.89160652 353.40830025 103.5168841 337.94701406 115.25024414 315.18530273 C123.94172988 295.91743074 125.96788841 277.31730831 119.25024414 257.18530273 C114.0659036 243.79110984 103.51750926 231.25727762 90.25024414 225.18530273 C90.23606445 225.72155273 90.22188477 226.25780273 90.20727539 226.81030273 C88.86467089 248.87256041 77.47467566 271.68406337 62.25024414 287.18530273 C61.50129883 287.95874023 60.75235352 288.73217773 59.98071289 289.52905273 C42.44542432 306.51181978 19.45698143 310.73477051 -4.10522461 310.45874023 C-23.98334855 309.89119521 -42.72377887 302.09258419 -57.43725586 288.74780273 C-58.20038086 287.90217773 -58.96350586 287.05655273 -59.74975586 286.18530273 C-60.36334961 285.56397461 -60.97694336 284.94264648 -61.60913086 284.30249023 C-74.52911113 270.75108235 -78.2936679 254.45566186 -78.02709961 236.31420898 C-77.38912489 219.10158746 -68.70876028 205.83634996 -56.74975586 194.18530273 C-54.20381268 191.94654831 -51.59191861 190.02796228 -48.74975586 188.18530273 C-48.06268555 187.69803711 -47.37561523 187.21077148 -46.66772461 186.70874023 C-41.37175071 183.19012044 -35.86099196 180.96614615 -29.87475586 178.93530273 C-29.15626465 178.6890918 -28.43777344 178.44288086 -27.69750977 178.18920898 C-17.50193143 174.89752617 -7.29436575 173.87805781 3.37524414 173.91967773 C4.48399902 173.91776428 5.59275391 173.91585083 6.73510742 173.91387939 C9.06111887 173.91252859 11.38713814 173.91614709 13.71313477 173.92456055 C17.24130443 173.93527558 20.76896501 173.92462706 24.29711914 173.91186523 C26.57316191 173.91318702 28.84920437 173.91574982 31.12524414 173.91967773 C32.68202881 173.91360504 32.68202881 173.91360504 34.27026367 173.90740967 C41.4310949 173.95248892 48.22415478 174.81710329 55.25024414 176.18530273 C51.31659627 160.48288381 47.63275226 148.29309307 34.25024414 138.18530273 C33.29311523 137.45827148 33.29311523 137.45827148 32.31665039 136.71655273 C20.54972537 128.57204125 2.1436919 129.6216866 -11.41381836 131.83764648 C-22.24871337 134.04069136 -31.72600816 138.72748561 -38.53100586 147.60717773 C-39.82165925 149.27840841 -41.24634216 150.70560544 -42.74975586 152.18530273 C-43.31895752 151.84273437 -43.88815918 151.50016602 -44.47460938 151.1472168 C-47.08668039 149.57578299 -49.69946239 148.00553501 -52.31225586 146.43530273 C-53.20750977 145.89647461 -54.10276367 145.35764648 -55.02514648 144.80249023 C-55.90493164 144.27397461 -56.7847168 143.74545898 -57.69116211 143.20092773 C-58.98304443 142.41878906 -58.98304443 142.41878906 -60.30102539 141.62084961 C-62.44831126 140.362022 -64.62197575 139.23384174 -66.83959961 138.10717773 C-69.74975586 136.18530273 -69.74975586 136.18530273 -70.97241211 133.81811523 C-70.64825926 129.98514991 -68.65910995 127.82154462 -66.18725586 125.06030273 C-65.69346436 124.49625732 -65.19967285 123.93221191 -64.69091797 123.35107422 C-48.1083681 105.01947302 -25.3327471 95.15936603 -0.72631836 93.86108398 C24.53898501 93.06625221 47.31729032 100.13450219 66.06274414 117.49780273 C72.40589744 124.30783787 77.9886948 132.52191389 81.42602539 141.16967773 C82.23215096 143.14105591 83.20040768 144.89751625 84.25024414 146.74780273 C86.14261711 150.51770653 87.26995932 154.42654138 88.31274414 158.49780273 C88.48974854 159.17536621 88.66675293 159.85292969 88.84912109 160.55102539 C89.79572082 164.4346258 90.36637639 168.13585205 90.57055664 172.13061523 C90.83187776 180.63127851 90.83187776 180.63127851 94.83374023 187.75317383 C98.9359212 190.55894511 103.46904911 192.36633076 108.05834961 194.22143555 C128.51983725 203.21920267 144.06604044 223.57183169 152.75024414 243.65405273 C160.6408082 264.50768632 161.7319731 286.59061288 156.25024414 308.18530273 C155.84999023 309.82112305 155.84999023 309.82112305 155.44165039 311.48999023 C151.8657872 324.49023951 145.41493362 336.50694728 137.25024414 347.18530273 C136.50774414 348.23137695 136.50774414 348.23137695 135.75024414 349.29858398 C111.31164363 382.71837018 73.17384135 398.64033492 33.52758789 405.16577148 C-17.19237805 412.75776302 -68.42476386 403.13576943 -110.43725586 373.27514648 C-112.59389366 371.63145899 -114.68235562 369.93958216 -116.74975586 368.18530273 C-117.50643555 367.54979492 -118.26311523 366.91428711 -119.04272461 366.25952148 C-124.08395208 361.91072392 -128.46471665 357.26755854 -132.74975586 352.18530273 C-133.91614374 350.89338432 -135.08281281 349.60171971 -136.24975586 348.31030273 C-140.13556212 343.83860994 -143.52174715 339.15096937 -146.74975586 334.18530273 C-147.1197168 333.61763184 -147.48967773 333.04996094 -147.87084961 332.46508789 C-162.61461746 309.52160981 -172.59613786 282.47078563 -175.42163086 255.29077148 C-175.73443659 252.33028869 -176.22953491 249.47806977 -176.81225586 246.56030273 C-179.28824333 233.27039809 -178.99171773 219.65258174 -178.99975586 206.18530273 C-179.0004306 205.16740662 -179.00110535 204.1495105 -179.00180054 203.10076904 C-178.94533677 149.30188213 -167.82629518 92.83003525 -130.12475586 51.99780273 C-127.91848752 49.60187274 -125.78879249 47.23581614 -123.79663086 44.65795898 C-101.40611199 17.60987035 -58.78537168 4.37478252 -25.14428711 0.62280273 C-16.78324491 -0.09089239 -8.3852156 -0.00070023 0 0 Z " fill="#FBFBFB" transform="translate(370.749755859375,166.814697265625)"/>
<path d="M0 0 C2.52751409 0.01058846 5.05429651 0.00013083 7.58178711 -0.01269531 C34.73895729 -0.03517505 34.73895729 -0.03517505 44.62670898 3.26074219 C46.59688322 19.16807493 38.93135077 37.19589129 29.75561523 49.83886719 C20.65496496 60.89881239 8.35748087 65.06992087 -5.50610352 66.60839844 C-21.0668584 67.09599702 -35.96500125 63.18717379 -47.45922852 52.44433594 C-53.09241629 46.01790335 -54.7227602 37.99878736 -54.58422852 29.65917969 C-53.83331634 21.12103016 -50.00757673 15.5266616 -43.84985352 9.85839844 C-38.73105397 5.75087392 -32.64164695 3.93181728 -26.37329102 2.26074219 C-25.73012939 2.07979004 -25.08696777 1.89883789 -24.42431641 1.71240234 C-16.37417933 -0.24934448 -8.23203219 -0.04084206 0 0 Z " fill="#010101" transform="translate(382.373291015625,375.7392578125)"/>
<path d="M0 0 C8.56494337 3.08997957 16.27341806 9.99626669 22 17 C23.22265625 19.7421875 23.22265625 19.7421875 24 22 C23.01 22.33 22.02 22.66 21 23 C20.0234375 21.20963542 19.046875 19.41927083 18.0703125 17.62890625 C17.08589976 15.83381685 17.08589976 15.83381685 15 15 C15 14.34 15 13.68 15 13 C14.360625 12.731875 13.72125 12.46375 13.0625 12.1875 C11 11 11 11 10 8 C7.57616923 6.83046584 7.57616923 6.83046584 5 6 C4.34 5.67 3.68 5.34 3 5 C2.81824219 5.66386719 2.63648438 6.32773437 2.44921875 7.01171875 C1.10476709 11.73453613 -0.14984737 15.92835339 -3 20 C-4.26338576 17.47322847 -3.85376414 16.58286386 -3.22265625 13.8671875 C-3.03896484 13.06152344 -2.85527344 12.25585938 -2.66601562 11.42578125 C-2.46685547 10.58402344 -2.26769531 9.74226563 -2.0625 8.875 C-1.76956055 7.60076172 -1.76956055 7.60076172 -1.47070312 6.30078125 C-0.98660741 4.19909742 -0.49409097 2.09935649 0 0 Z " fill="#141414" transform="translate(461,392)"/>
<path d="M0 0 C3.17695511 1.46517108 5.84934394 3.24916309 8.625 5.375 C9.78902344 6.25285156 9.78902344 6.25285156 10.9765625 7.1484375 C13 9 13 9 14.0234375 11.1015625 C15.28443981 13.55295099 16.55007773 13.8222392 19 15 C21.03515625 17.0234375 21.03515625 17.0234375 23.0625 19.375 C23.73410156 20.14585937 24.40570313 20.91671875 25.09765625 21.7109375 C26.03931641 22.84402344 26.03931641 22.84402344 27 24 C27.59683594 24.69351562 28.19367187 25.38703125 28.80859375 26.1015625 C29.20175781 26.72804688 29.59492187 27.35453125 30 28 C29.67 28.99 29.34 29.98 29 31 C26.02548408 28.14499588 23.51259344 25.13946799 21 21.875 C15.96242965 15.64475985 10.28246552 10.92243458 4 6 C2.33266688 4.66750017 0.66577662 3.33444514 -1 2 C-0.67 1.34 -0.34 0.68 0 0 Z " fill="#202020" transform="translate(485,362)"/>
<path d="M0 0 C0.99 0.66 1.98 1.32 3 2 C-7.02656897 10.12784993 -17.47496508 18.22170892 -30 22 C-28.95091027 18.71430925 -27.88769462 17.93191486 -24.875 16.10546875 C-23.58814288 15.45651935 -22.29615556 14.81767245 -21 14.1875 C-15.30376539 11.3018176 -10.08417219 8.1784891 -4.953125 4.34765625 C-3 3 -3 3 0 2 C0 1.34 0 0.68 0 0 Z " fill="#181818" transform="translate(464,506)"/>
<path d="M0 0 C0.33 0 0.66 0 1 0 C0.58894145 5.24099655 -0.24039194 8.24039194 -4 12 C-4.66 12 -5.32 12 -6 12 C-6.226875 12.721875 -6.45375 13.44375 -6.6875 14.1875 C-8.86594658 18.8555998 -12.22299579 22.0538131 -17 24 C-17 24.66 -17 25.32 -17 26 C-18.65 26.66 -20.3 27.32 -22 28 C-21.44291667 24.38288149 -20.27138983 23.05853793 -17.4375 20.8125 C-10.7642214 15.21555666 -5.25750753 8.99356394 -0.91015625 1.43359375 C-0.60980469 0.96050781 -0.30945313 0.48742187 0 0 Z " fill="#1B1B1B" transform="translate(446,436)"/>
<path d="M0 0 C0.99 0.66 1.98 1.32 3 2 C-0.67205899 13.08817812 -5.28005578 22.442746 -12 32 C-12.66 31.67 -13.32 31.34 -14 31 C-12.57965827 26.86809679 -10.47227033 23.41838985 -8.12109375 19.76953125 C-6.95668375 17.9974569 -6.95668375 17.9974569 -6 16 C-5.34 16 -4.68 16 -4 16 C-3.86722656 15.29488281 -3.73445313 14.58976562 -3.59765625 13.86328125 C-2.98596011 10.93273701 -2.2368647 8.0721639 -1.4375 5.1875 C-1.16808594 4.21167969 -0.89867187 3.23585938 -0.62109375 2.23046875 C-0.41613281 1.49441406 -0.21117187 0.75835937 0 0 Z " fill="#131313" transform="translate(490,464)"/>
<path d="M0 0 C0.54527344 0.22429687 1.09054687 0.44859375 1.65234375 0.6796875 C-1.33430218 3.37730318 -4.15711351 5.10770007 -7.84765625 6.6171875 C-11.91277104 8.32668941 -14.33704613 10.4181932 -17.34765625 13.6796875 C-19.97265625 15.5546875 -19.97265625 15.5546875 -22.34765625 16.6796875 C-23.33765625 16.3496875 -24.32765625 16.0196875 -25.34765625 15.6796875 C-6.29622764 -0.85905269 -6.29622764 -0.85905269 0 0 Z " fill="#222222" transform="translate(300.34765625,217.3203125)"/>
<path d="M0 0 C10.36717691 4.87188046 18.13462408 13.91580373 26 22 C24.68 22.33 23.36 22.66 22 23 C21.33355469 22.2265625 20.66710937 21.453125 19.98046875 20.65625 C14.43597761 14.3511281 9.09360087 9.22171245 2.01953125 4.62109375 C1.35308594 4.08613281 0.68664062 3.55117187 0 3 C0 2.01 0 1.02 0 0 Z " fill="#1E1E1E" transform="translate(460,226)"/>
<path d="M0 0 C2.13285397 3.41376767 2.07480216 5.44776753 1.35546875 9.359375 C1.17306641 10.39320313 0.99066406 11.42703125 0.80273438 12.4921875 C0.59970703 13.56726563 0.39667969 14.64234375 0.1875 15.75 C-0.19540949 17.86953939 -0.57694819 19.98932694 -0.95703125 22.109375 C-1.13959473 23.11419922 -1.3221582 24.11902344 -1.51025391 25.15429688 C-2.13094426 28.76086057 -2.59158653 32.36380263 -3 36 C-3.66 36 -4.32 36 -5 36 C-5.28066213 28.63437954 -4.48179462 21.84424946 -3.0625 14.625 C-2.78889648 13.16900391 -2.78889648 13.16900391 -2.50976562 11.68359375 C-1.76576397 7.76067595 -1.00082076 3.86642816 0 0 Z " fill="#0E0E0E" transform="translate(197,300)"/>
<path d="M0 0 C13.53 0 27.06 0 41 0 C41 0.33 41 0.66 41 1 C39.329375 1.2165625 39.329375 1.2165625 37.625 1.4375 C34.17857953 1.78372035 34.17857953 1.78372035 32 3 C30.02473429 3.02827842 28.04830377 2.98797201 26.07421875 2.9140625 C24.88505859 2.87023437 23.69589844 2.82640625 22.47070312 2.78125 C21.22224609 2.7296875 19.97378906 2.678125 18.6875 2.625 C16.8322168 2.55925781 16.8322168 2.55925781 14.93945312 2.4921875 C4.84042559 2.09935661 4.84042559 2.09935661 0 1 C0 0.67 0 0.34 0 0 Z " fill="#1C1C1C" transform="translate(355,202)"/>
<path d="M0 0 C0.33 0 0.66 0 1 0 C1.92548363 4.72366846 2.1830478 9.32553067 2.1875 14.125 C2.19974609 14.82753906 2.21199219 15.53007812 2.22460938 16.25390625 C2.23524207 20.00370405 2.08489719 22.81908966 0 26 C-1.6438397 24.3561603 -1.12997064 22.45621609 -1.1328125 20.1953125 C-1.13410156 19.21949219 -1.13539063 18.24367188 -1.13671875 17.23828125 C-1.13285156 16.21089844 -1.12898438 15.18351562 -1.125 14.125 C-1.12886719 13.10535156 -1.13273437 12.08570313 -1.13671875 11.03515625 C-1.13542969 10.05675781 -1.13414062 9.07835937 -1.1328125 8.0703125 C-1.13168457 7.17070801 -1.13055664 6.27110352 -1.12939453 5.34423828 C-1 3 -1 3 0 0 Z " fill="#252525" transform="translate(493,434)"/>
<path d="M0 0 C0.66 0.66 1.32 1.32 2 2 C1.57863475 6.04939148 0.10803048 9.76708884 -1.3125 13.5625 C-1.72113281 14.67753906 -2.12976563 15.79257812 -2.55078125 16.94140625 C-4.0046103 20.00973009 -5.46073262 21.78558559 -8 24 C-8 20.23405877 -7.63105387 18.6006938 -6.25 15.234375 C-5.70859375 13.90019531 -5.70859375 13.90019531 -5.15625 12.5390625 C-4.7746875 11.61867188 -4.393125 10.69828125 -4 9.75 C-3.6184375 8.81414062 -3.236875 7.87828125 -2.84375 6.9140625 C-1.90199665 4.6067668 -0.95389853 2.30229499 0 0 Z " fill="#1F1F1F" transform="translate(456,413)"/>
<path d="M0 0 C1.70884005 1.62339805 3.37446717 3.29319053 5 5 C5 5.66 5 6.32 5 7 C5.66 7 6.32 7 7 7 C8.98046875 9.51953125 8.98046875 9.51953125 11.1875 12.8125 C11.92355469 13.89144531 12.65960937 14.97039062 13.41796875 16.08203125 C13.94003906 17.04496094 14.46210937 18.00789063 15 19 C14.67 19.99 14.34 20.98 14 22 C12.66666667 20.33333333 11.33333333 18.66666667 10 17 C9.37254883 16.22438721 9.37254883 16.22438721 8.73242188 15.43310547 C7.39516582 13.77548591 6.07200448 12.10729926 4.75 10.4375 C4.29109375 9.87353516 3.8321875 9.30957031 3.359375 8.72851562 C0.78141669 5.44852402 0 4.31600861 0 0 Z " fill="#161616" transform="translate(513,224)"/>
<path d="M0 0 C0.99 0 1.98 0 3 0 C3.32613281 0.60328125 3.65226563 1.2065625 3.98828125 1.828125 C4.42527344 2.62734375 4.86226562 3.4265625 5.3125 4.25 C5.74175781 5.03890625 6.17101562 5.8278125 6.61328125 6.640625 C7.9534484 9.03172974 7.9534484 9.03172974 9.66796875 11.171875 C11 13 11 13 11 15 C11.99 15.33 12.98 15.66 14 16 C15.75 18.375 15.75 18.375 17 21 C16.67 21.99 16.34 22.98 16 24 C0 4.04903678 0 4.04903678 0 0 Z " fill="#181818" transform="translate(249,473)"/>
<path d="M0 0 C0 0.33 0 0.66 0 1 C-9.91508857 2.32708583 -19.72589492 1.90715484 -29.6875 1.5625 C-31.37172551 1.50915349 -33.05597038 1.45641446 -34.74023438 1.40429688 C-38.82707965 1.27652921 -42.9135755 1.14055949 -47 1 C-47 0.67 -47 0.34 -47 0 C-43.07146009 -0.14497311 -39.14283209 -0.28725774 -35.21411133 -0.42724609 C-33.23448842 -0.49831315 -31.25493827 -0.57139769 -29.27539062 -0.64453125 C-7.88919236 -1.40252309 -7.88919236 -1.40252309 0 0 Z " fill="#454545" transform="translate(407,166)"/>
<path d="M0 0 C-1.77276727 2.25945386 -2.74134584 2.94753036 -5.59838867 3.52709961 C-14.20633214 4.0430797 -22.69985112 3.94150883 -31.3125 3.5625 C-32.65036328 3.5090764 -33.98825414 3.45633879 -35.32617188 3.40429688 C-38.5511161 3.2762305 -41.77561593 3.14136131 -45 3 C-45 2.67 -45 2.34 -45 2 C-44.13834229 1.97494385 -43.27668457 1.9498877 -42.38891602 1.92407227 C-39.15151571 1.82818312 -35.91423661 1.72900214 -32.67700195 1.62768555 C-31.28348651 1.58472646 -29.8899315 1.54302945 -28.49633789 1.50268555 C-19.01636917 1.22716439 -9.44607029 -0.24220693 0 0 Z " fill="#191919" transform="translate(402,534)"/>
<path d="M0 0 C2 2 2 2 2.01171875 4.87109375 C1.90472656 6.04800781 1.79773438 7.22492188 1.6875 8.4375 C1.57921875 9.68660156 1.4709375 10.93570312 1.359375 12.22265625 C1.24078125 13.46917969 1.1221875 14.71570313 1 16 C0.85304687 17.66869141 0.85304687 17.66869141 0.703125 19.37109375 C0.47816989 21.91507144 0.24384601 24.4577756 0 27 C-0.99 27.33 -1.98 27.66 -3 28 C-2.69215285 24.27043397 -2.37790473 20.54143389 -2.0625 16.8125 C-1.97548828 15.75740234 -1.88847656 14.70230469 -1.79882812 13.61523438 C-1.71181641 12.59365234 -1.62480469 11.57207031 -1.53515625 10.51953125 C-1.456604 9.58214111 -1.37805176 8.64475098 -1.29711914 7.67895508 C-1.00824513 5.07434165 -0.55423169 2.56002256 0 0 Z " fill="#1F1F1F" transform="translate(231,320)"/>
<path d="M0 0 C2.875 0.75 2.875 0.75 6 2 C7.125 4 7.125 4 8 6 C8.928125 6.4640625 8.928125 6.4640625 9.875 6.9375 C12.75638944 8.37819472 14.06051289 10.45442316 16 13 C17.31494512 14.35147138 18.64264858 15.69112542 20 17 C19.34 17.99 18.68 18.98 18 20 C17.57589844 19.41992188 17.15179688 18.83984375 16.71484375 18.2421875 C12.23970187 12.28188864 7.60499836 7.58820395 1.5625 3.25 C1.046875 2.8375 0.53125 2.425 0 2 C0 1.34 0 0.68 0 0 Z " fill="#191919" transform="translate(425,274)"/>
<path d="M0 0 C-3.01070517 2.63436702 -6.08445912 3.78955612 -9.828125 5.10546875 C-13.491376 6.61425378 -16.72256323 8.79470345 -20 11 C-20.66 10.34 -21.32 9.68 -22 9 C-20.71186658 8.16121545 -19.41936744 7.32913217 -18.125 6.5 C-17.40570313 6.0359375 -16.68640625 5.571875 -15.9453125 5.09375 C-14 4 -14 4 -12 4 C-12 3.34 -12 2.68 -12 2 C-10.75579353 1.4654744 -9.50429064 0.94791389 -8.25 0.4375 C-7.55390625 0.14746094 -6.8578125 -0.14257812 -6.140625 -0.44140625 C-3.69987216 -1.07831803 -2.3596345 -0.80248831 0 0 Z " fill="#151515" transform="translate(340,346)"/>
<path d="M0 0 C0.33 0.99 0.66 1.98 1 3 C0.09507812 3.96099609 0.09507812 3.96099609 -0.828125 4.94140625 C-5.25041577 9.7274661 -9.08115176 14.16230353 -12 20 C-12.99 19.34 -13.98 18.68 -15 18 C-5.77448747 5.33029613 -5.77448747 5.33029613 0 0 Z " fill="#191919" transform="translate(273,235)"/>
<path d="M0 0 C0.66 0.33 1.32 0.66 2 1 C0.76581863 4.70254412 -0.66058215 5.49543661 -3.75 7.8125 C-7.77092019 10.92900118 -10.95514785 13.94019713 -14 18 C-14.33 17.01 -14.66 16.02 -15 15 C-13.1875 12.3125 -13.1875 12.3125 -11 10 C-10.34 10 -9.68 10 -9 10 C-8.773125 9.4225 -8.54625 8.845 -8.3125 8.25 C-6.65151778 5.40260191 -4.68475439 3.87932807 -2 2 C-1.34 2 -0.68 2 0 2 C0 1.34 0 0.68 0 0 Z " fill="#282828" transform="translate(258,198)"/>
<path d="M0 0 C0.66 0.33 1.32 0.66 2 1 C-0.52808794 8.71732109 -3.25027472 16.35945902 -6 24 C-6.66 23.67 -7.32 23.34 -8 23 C-7.38696372 17.59491957 -5.55619307 13.07560955 -3.4375 8.125 C-3.10814453 7.34125 -2.77878906 6.5575 -2.43945312 5.75 C-1.63203214 3.83091244 -0.81680231 1.9151135 0 0 Z " fill="#111111" transform="translate(209,265)"/>
<path d="M0 0 C11.74165564 -0.32472314 22.67751949 -0.52908483 34 3 C33.34 3.66 32.68 4.32 32 5 C28.7421875 4.7578125 28.7421875 4.7578125 24.875 4.125 C23.59367187 3.92132813 22.31234375 3.71765625 20.9921875 3.5078125 C20.00476563 3.34023438 19.01734375 3.17265625 18 3 C18 2.67 18 2.34 18 2 C12.06 1.67 6.12 1.34 0 1 C0 0.67 0 0.34 0 0 Z " fill="#181818" transform="translate(368,259)"/>
<path d="M0 0 C0 0.33 0 0.66 0 1 C-3.05897731 1.7038474 -6.12256069 2.38512829 -9.1875 3.0625 C-10.48397461 3.36124023 -10.48397461 3.36124023 -11.80664062 3.66601562 C-19.74688824 5.40009269 -19.74688824 5.40009269 -24 4 C-21.2996559 1.2996559 -18.43177178 1.02236683 -14.8125 0.3125 C-14.16474609 0.17005859 -13.51699219 0.02761719 -12.84960938 -0.11914062 C-8.18807495 -1.05517301 -4.5920273 -0.88743459 0 0 Z " fill="#121212" transform="translate(336,169)"/>
<path d="M0 0 C0.99 0.33 1.98 0.66 3 1 C2.154375 1.928125 1.30875 2.85625 0.4375 3.8125 C-3.05482611 7.83446798 -5.70105282 12.25260287 -8.38671875 16.83984375 C-9.18529297 17.90912109 -9.18529297 17.90912109 -10 19 C-10.99 19 -11.98 19 -13 19 C-9.66457254 12.01299082 -5.07122918 5.81699818 0 0 Z " fill="#121212" transform="translate(310,361)"/>
<path d="M0 0 C0.99 0.66 1.98 1.32 3 2 C3.1875 4.625 3.1875 4.625 3 7 C-2.14283854 7.20991178 -6.08869086 6.43952164 -11 5 C-13.99200772 4.56436368 -16.98799056 4.25953823 -20 4 C-20 3.67 -20 3.34 -20 3 C-6.3667426 2.81548975 -6.3667426 2.81548975 0 4 C0 2.68 0 1.36 0 0 Z " fill="#181818" transform="translate(423,336)"/>
<path d="M0 0 C5.35810969 -0.16898112 10.19349172 0.43488578 15.4375 1.5 C16.16904297 1.64308594 16.90058594 1.78617187 17.65429688 1.93359375 C19.43735486 2.28321296 21.21885203 2.64077688 23 3 C23 3.99 23 4.98 23 6 C7.25512528 4.25740319 7.25512528 4.25740319 0 1 C0 0.67 0 0.34 0 0 Z " fill="#131313" transform="translate(347,436)"/>
<path d="M0 0 C0.33 0.66 0.66 1.32 1 2 C0.34 2 -0.32 2 -1 2 C-1.061875 2.61875 -1.12375 3.2375 -1.1875 3.875 C-1.455625 4.57625 -1.72375 5.2775 -2 6 C-3.2065625 6.4640625 -3.2065625 6.4640625 -4.4375 6.9375 C-7.22355802 7.76489673 -7.22355802 7.76489673 -8.25 10.5 C-8.4975 11.325 -8.745 12.15 -9 13 C-9.33 13.66 -9.66 14.32 -10 15 C-11.32 14.67 -12.64 14.34 -14 14 C-10.65278153 8.28183511 -6.01475469 3.00737734 0 0 Z " fill="#222222" transform="translate(343,304)"/>
<path d="M0 0 C0.6953125 1.69140625 0.6953125 1.69140625 1 4 C-1.97527655 9.68259342 -6.26732535 14.6975685 -11 19 C-11.66 18.34 -12.32 17.68 -13 17 C-12.154375 16.05125 -11.30875 15.1025 -10.4375 14.125 C-6.60134875 9.66627528 -3.30447239 4.85894313 0 0 Z " fill="#141414" transform="translate(512,507)"/>
<path d="M0 0 C-2.40183836 1.60122557 -4.15178154 2.53585561 -6.79296875 3.5078125 C-7.50517578 3.77207031 -8.21738281 4.03632813 -8.95117188 4.30859375 C-9.68916016 4.57800781 -10.42714844 4.84742188 -11.1875 5.125 C-11.93708984 5.40214844 -12.68667969 5.67929688 -13.45898438 5.96484375 C-15.30470959 6.64670402 -17.15218787 7.32381559 -19 8 C-19 7.01 -19 6.02 -19 5 C-16.77735746 3.9623658 -14.54874335 2.94503821 -12.3125 1.9375 C-11.68666016 1.64294922 -11.06082031 1.34839844 -10.41601562 1.04492188 C-6.53978432 -0.68010253 -4.07357275 -1.36305016 0 0 Z " fill="#121212" transform="translate(304,177)"/>
<path d="M0 0 C2.70604293 2.62872742 5.25266396 5.25272563 7.625 8.1875 C9.87722335 11.11880346 9.87722335 11.11880346 13 13 C13 13.66 13 14.32 13 15 C9.83629944 13.94543315 8.40504693 12.81120046 5.9375 10.625 C5.24527344 10.01914062 4.55304688 9.41328125 3.83984375 8.7890625 C2 7 2 7 0 4 C0 2.68 0 1.36 0 0 Z " fill="#2C2C2C" transform="translate(232,512)"/>
<path d="M0 0 C2.26546852 3.39820279 3.38901628 6.83942278 4.625 10.6875 C4.85445312 11.38939453 5.08390625 12.09128906 5.3203125 12.81445312 C5.88429209 14.54164062 6.44269339 16.27064782 7 18 C6.01 18 5.02 18 4 18 C1.40008102 12.66714294 -0.63500107 7.96164912 -1 2 C-0.67 1.34 -0.34 0.68 0 0 Z " fill="#161616" transform="translate(202,453)"/>
<path d="M0 0 C2.59783875 2.5082581 5.03692381 4.9572319 7 8 C7 8.99 7 9.98 7 11 C7.66 11 8.32 11 9 11 C9.625 13.3125 9.625 13.3125 10 16 C9.34 16.99 8.68 17.98 8 19 C7.76925781 18.45472656 7.53851563 17.90945313 7.30078125 17.34765625 C4.85628489 11.6953623 2.0762635 6.33303057 -1 1 C-0.67 0.67 -0.34 0.34 0 0 Z " fill="#202020" transform="translate(445,293)"/>
<path d="M0 0 C0.99 0.66 1.98 1.32 3 2 C2.60167969 2.65226563 2.20335937 3.30453125 1.79296875 3.9765625 C-0.99490488 8.57553652 -3.69721368 13.13856221 -6 18 C-6.99 18 -7.98 18 -9 18 C-7.45614871 13.85967154 -5.48971062 10.06446947 -3.375 6.1875 C-3.05015625 5.59001953 -2.7253125 4.99253906 -2.390625 4.37695312 C-1.59620849 2.91662865 -0.79844624 1.45812509 0 0 Z " fill="#171717" transform="translate(220,243)"/>
<path d="M0 0 C0.61694336 1.78417969 0.61694336 1.78417969 1 4 C-0.39100376 6.56711342 -1.78932492 8.86148118 -3.4375 11.25 C-3.87126953 11.8996875 -4.30503906 12.549375 -4.75195312 13.21875 C-5.82341928 14.82006205 -6.91026283 16.41106548 -8 18 C-8.66 17.34 -9.32 16.68 -10 16 C-7.65470463 11.08485969 -5.27491424 6.36655232 -2 2 C-1.34 2 -0.68 2 0 2 C0 1.34 0 0.68 0 0 Z " fill="#171717" transform="translate(232,225)"/>
<path d="M0 0 C4.35176215 0.597459 7.52603237 2.18356452 11.3125 4.375 C12.38113281 4.98085938 13.44976562 5.58671875 14.55078125 6.2109375 C15.76314453 7.09652344 15.76314453 7.09652344 17 8 C17 8.99 17 9.98 17 11 C13.47761996 9.69933317 10.48505871 8.16259119 7.375 6.0625 C6.61960937 5.55847656 5.86421875 5.05445313 5.0859375 4.53515625 C3.19527139 3.14371097 1.60210371 1.70925077 0 0 Z " fill="#1D1D1D" transform="translate(262,543)"/>
<path d="M0 0 C1.82421875 0.10546875 1.82421875 0.10546875 4 1 C5.51953125 3.80078125 5.51953125 3.80078125 6.8125 7.3125 C7.25207031 8.46363281 7.69164062 9.61476563 8.14453125 10.80078125 C8.95775068 13.84199913 9.15083786 15.14055625 8 18 C5.43157813 15.43157813 4.70650931 12.96041449 3.4375 9.5625 C3.00308594 8.40878906 2.56867187 7.25507813 2.12109375 6.06640625 C1.38552217 4.05447701 0.67741603 2.0322481 0 0 Z " fill="#1E1E1E" transform="translate(536,264)"/>
<path d="M0 0 C4.80266266 -0.51424304 8.19331113 1.30253364 12.3125 3.5 C12.95767578 3.83386719 13.60285156 4.16773438 14.26757812 4.51171875 C15.84976826 5.33211363 17.42555354 6.16484031 19 7 C17.37890625 8.16796875 17.37890625 8.16796875 15 9 C12.08984375 7.98828125 12.08984375 7.98828125 8.9375 6.3125 C7.89464844 5.77238281 6.85179687 5.23226562 5.77734375 4.67578125 C3.44090666 3.26603229 1.77816612 2.03658472 0 0 Z " fill="#232323" transform="translate(290,517)"/>
<path d="M0 0 C0.66 0.33 1.32 0.66 2 1 C1.41503256 4.66579598 0.42173293 7.50499144 -1.375 10.75 C-1.79523437 11.52859375 -2.21546875 12.3071875 -2.6484375 13.109375 C-4 15 -4 15 -7 16 C-5.35433477 10.31497465 -2.70967216 5.23318364 0 0 Z " fill="#1D1D1D" transform="translate(522,488)"/>
<path d="M0 0 C4.59467678 0.47250222 6.58211447 2.0901791 9.75 5.375 C10.52859375 6.16648437 11.3071875 6.95796875 12.109375 7.7734375 C14 10 14 10 15 13 C12 13 12 13 10.24609375 11.28515625 C9.35083984 10.18494141 9.35083984 10.18494141 8.4375 9.0625 C6.08714476 6.07351045 6.08714476 6.07351045 3 4 C3 3.34 3 2.68 3 2 C2.01 2 1.02 2 0 2 C0 1.34 0 0.68 0 0 Z " fill="#1B1B1B" transform="translate(402,304)"/>
<path d="M0 0 C1.62566606 0.47690204 3.25051311 0.95659666 4.875 1.4375 C5.77992188 1.70433594 6.68484375 1.97117187 7.6171875 2.24609375 C10 3 10 3 12 4 C11.67 4.66 11.34 5.32 11 6 C11.99 6.33 12.98 6.66 14 7 C13.34 7.66 12.68 8.32 12 9 C7.38 6.69 2.76 4.38 -2 2 C-1.34 1.34 -0.68 0.68 0 0 Z " fill="#131313" transform="translate(410,265)"/>
<path d="M0 0 C4.62 2.31 9.24 4.62 14 7 C13.67 7.66 13.34 8.32 13 9 C7.31497465 7.35433477 2.23318364 4.70967216 -3 2 C-2.01 1.34 -1.02 0.68 0 0 Z " fill="#222222" transform="translate(457,181)"/>
<path d="M0 0 C2.63768901 0.99154003 4.96093328 2.25171079 7.390625 3.6796875 C8.28265625 4.19273437 9.1746875 4.70578125 10.09375 5.234375 C11.10695313 6.01167969 11.10695313 6.01167969 12.140625 6.8046875 C12.140625 7.7946875 12.140625 8.7846875 12.140625 9.8046875 C11.61984375 9.53914063 11.0990625 9.27359375 10.5625 9 C7.53032392 7.50347439 4.46254363 6.09277007 1.390625 4.6796875 C0.22015625 4.14085937 -0.9503125 3.60203125 -2.15625 3.046875 C-3.04828125 2.63695312 -3.9403125 2.22703125 -4.859375 1.8046875 C-1.859375 -0.1953125 -1.859375 -0.1953125 0 0 Z " fill="#222222" transform="translate(471.859375,354.1953125)"/>
<path d="M0 0 C0.99 0.33 1.98 0.66 3 1 C3.14308594 1.60328125 3.28617187 2.2065625 3.43359375 2.828125 C4.20744046 5.79542687 5.72370053 6.81956234 8.0625 8.75 C8.79597656 9.36359375 9.52945312 9.9771875 10.28515625 10.609375 C11.13400391 11.29773438 11.13400391 11.29773438 12 12 C11.34 12.66 10.68 13.32 10 14 C8.53184611 12.78258021 7.07583153 11.55051239 5.625 10.3125 C4.81289063 9.62800781 4.00078125 8.94351562 3.1640625 8.23828125 C0.90465677 5.90138687 -0.02155853 4.0697257 -1 1 C-0.67 0.67 -0.34 0.34 0 0 Z " fill="#1B1B1B" transform="translate(332,420)"/>
<path d="M0 0 C0 0.33 0 0.66 0 1 C-2.22481229 1.70146314 -4.45507368 2.38565954 -6.6875 3.0625 C-7.92886719 3.44535156 -9.17023438 3.82820313 -10.44921875 4.22265625 C-13.8531786 4.96785758 -15.71559076 4.99851065 -19 4 C-14.04986492 -0.95013508 -6.5144657 -1.55780701 0 0 Z " fill="#232323" transform="translate(365,299)"/>
<path d="M0 0 C2.44168979 3.03056792 4.13027389 6.09018596 5.75 9.625 C6.19859375 10.58664062 6.6471875 11.54828125 7.109375 12.5390625 C7.40328125 13.35117187 7.6971875 14.16328125 8 15 C7.67 15.66 7.34 16.32 7 17 C4.71804343 14.71804343 3.3983938 12.4351586 1.8125 9.625 C1.26207031 8.66851562 0.71164062 7.71203125 0.14453125 6.7265625 C-1 4 -1 4 -0.67578125 1.6484375 C-0.45277344 1.10445313 -0.22976563 0.56046875 0 0 Z " fill="#2A2A2A" transform="translate(501,273)"/>
<path d="M0 0 C0.66 0.99 1.32 1.98 2 3 C-1.96 8.94 -1.96 8.94 -6 15 C-6.66 14.67 -7.32 14.34 -8 14 C-6.6744419 10.37723685 -5.05653045 7.36494652 -2.875 4.1875 C-2.33617187 3.39730469 -1.79734375 2.60710937 -1.2421875 1.79296875 C-0.83226562 1.20128906 -0.42234375 0.60960937 0 0 Z " fill="#1C1C1C" transform="translate(484,481)"/>
<path d="M0 0 C0.99 0.33 1.98 0.66 3 1 C1.45454854 6.47932789 -1.15543212 11.11429181 -4 16 C-4.66 15.67 -5.32 15.34 -6 15 C-4 10 -2 5 0 0 Z " fill="#141414" transform="translate(418,407)"/>
<path d="M0 0 C2 3 2 3 1.79296875 5.3046875 C1.59316406 6.15289062 1.39335937 7.00109375 1.1875 7.875 C0.99542969 8.71804688 0.80335938 9.56109375 0.60546875 10.4296875 C0.40566406 11.27789062 0.20585937 12.12609375 0 13 C-0.33909832 14.66550329 -0.67414378 16.33185534 -1 18 C-1.99 18 -2.98 18 -4 18 C-2.68 12.06 -1.36 6.12 0 0 Z " fill="#2A2A2A" transform="translate(236,298)"/>
<path d="M0 0 C3.84160316 5.76240474 4.23538321 11.29157865 4 18 C3.34 18.33 2.68 18.66 2 19 C1.47120316 16.20962572 0.95165912 13.41807402 0.4375 10.625 C0.28603516 9.8309375 0.13457031 9.036875 -0.02148438 8.21875 C-1.11328125 2.2265625 -1.11328125 2.2265625 0 0 Z " fill="#0F0F0F" transform="translate(527,417)"/>
<path d="M0 0 C-0.33 0.99 -0.66 1.98 -1 3 C-6.31097302 5.23379981 -11.47098776 5.17638558 -17 4 C-14.0112778 2.34961512 -11.28632562 1.5114284 -7.9375 0.875 C-6.65166016 0.62363281 -6.65166016 0.62363281 -5.33984375 0.3671875 C-3 0 -3 0 0 0 Z " fill="#1C1C1C" transform="translate(343,204)"/>
<path d="M0 0 C4.62 2.31 9.24 4.62 14 7 C13.67 7.66 13.34 8.32 13 9 C9.65626525 8.44271087 6.96687001 7.64826111 4 6 C4 5.34 4 4.68 4 4 C2.68 3.34 1.36 2.68 0 2 C0 1.34 0 0.68 0 0 Z " fill="#171717" transform="translate(321,462)"/>
<path d="M0 0 C0 0.66 0 1.32 0 2 C-4.32059823 3.09845718 -8.61667943 4.17812739 -13 5 C-13 4.01 -13 3.02 -13 2 C-4.738041 -1.62870159 -4.738041 -1.62870159 0 0 Z " fill="#202020" transform="translate(357,380)"/>
<path d="M0 0 C0 0.33 0 0.66 0 1 C-1.65 1.33 -3.3 1.66 -5 2 C-5 2.33 -5 2.66 -5 3 C-6.91503674 3.22281874 -8.83216506 3.42771076 -10.75 3.625 C-11.81734375 3.74101562 -12.8846875 3.85703125 -13.984375 3.9765625 C-17.03792399 4.00029475 -18.46162421 3.61420985 -21 2 C-13.90673679 0.27669093 -7.29031024 -0.2494783 0 0 Z " fill="#1A1A1A" transform="translate(357,165)"/>
<path d="M0 0 C0.99 0.33 1.98 0.66 3 1 C2.278125 1.70125 1.55625 2.4025 0.8125 3.125 C-1.99823813 5.92770745 -4.49516226 8.92262792 -7 12 C-7.66 11.67 -8.32 11.34 -9 11 C-7.44095325 7.17324889 -4.96833913 4.81992217 -2 2 C-1.34 1.34 -0.68 0.68 0 0 Z " fill="#1C1C1C" transform="translate(313,280)"/>
<path d="M0 0 C1.46573934 0.90477737 2.92235756 1.82434141 4.375 2.75 C5.18710937 3.26046875 5.99921875 3.7709375 6.8359375 4.296875 C9.08555679 6.0673335 9.95906848 7.36907419 11 10 C7.00717059 10 5.84668408 8.52191924 2.8125 6 C1.91144531 5.2575 1.01039063 4.515 0.08203125 3.75 C-0.94857422 2.88375 -0.94857422 2.88375 -2 2 C-1.34 1.34 -0.68 0.68 0 0 Z " fill="#1C1C1C" transform="translate(486,198)"/>
<path d="M0 0 C0 0.99 0 1.98 0 3 C-1.94348501 4.73223664 -3.94720004 6.39881603 -6 8 C-6.66 8.66 -7.32 9.32 -8 10 C-9.32 9.34 -10.64 8.68 -12 8 C-8.04 5.36 -4.08 2.72 0 0 Z " fill="#1C1C1C" transform="translate(481,541)"/>
<path d="M0 0 C-0.25 1.875 -0.25 1.875 -1 4 C-2.875 5.125 -2.875 5.125 -5 6 C-5.99 6.66 -6.98 7.32 -8 8 C-10.6875 7.625 -10.6875 7.625 -13 7 C-4.25 0 -4.25 0 0 0 Z " fill="#242424" transform="translate(423,463)"/>
<path d="M0 0 C0.99 0.33 1.98 0.66 3 1 C3.95261487 5.76307437 4.08333357 10.1666528 4 15 C4.66 15.33 5.32 15.66 6 16 C5.01 16.33 4.02 16.66 3 17 C0.91858446 14.91858446 1.26911239 10.81393047 0.9375 7.9375 C0.84662109 7.17888672 0.75574219 6.42027344 0.66210938 5.63867188 C0.4375626 3.7595699 0.21829022 1.87983905 0 0 Z " fill="#111111" transform="translate(461,337)"/>
<path d="M0 0 C1.60597325 0.45196245 3.20972508 0.91182327 4.8125 1.375 C6.15248047 1.75785156 6.15248047 1.75785156 7.51953125 2.1484375 C10 3 10 3 13 5 C9.21180727 6.43410153 6.93478721 5.51009497 3.25 4.0625 C1.77273438 3.49208984 1.77273438 3.49208984 0.265625 2.91015625 C-0.48203125 2.60980469 -1.2296875 2.30945313 -2 2 C-1.34 1.34 -0.68 0.68 0 0 Z " fill="#161616" transform="translate(424,209)"/>
<path d="M0 0 C0.33 0.66 0.66 1.32 1 2 C0.67 2.99 0.34 3.98 0 5 C-0.66 5 -1.32 5 -2 5 C-2.433125 5.928125 -2.433125 5.928125 -2.875 6.875 C-4 9 -4 9 -6 11 C-6.99 11 -7.98 11 -9 11 C-7.59155282 7.78475695 -5.89655214 5.67816132 -3.375 3.25 C-2.74335938 2.63640625 -2.11171875 2.0228125 -1.4609375 1.390625 C-0.73777344 0.70226562 -0.73777344 0.70226562 0 0 Z " fill="#181818" transform="translate(498,525)"/>
<path d="M0 0 C0.33 0.99 0.66 1.98 1 3 C1.66 3 2.32 3 3 3 C2.30058404 6.14737182 1.23921302 9.02588876 0 12 C-2.64 11.67 -5.28 11.34 -8 11 C-8 10.67 -8 10.34 -8 10 C-4.535 9.505 -4.535 9.505 -1 9 C-1.020625 7.88625 -1.04125 6.7725 -1.0625 5.625 C-1 2 -1 2 0 0 Z " fill="#1C1C1C" transform="translate(547,288)"/>
<path d="M0 0 C3.58102841 3.38208239 6.56773474 6.69676146 9 11 C8.67 11.99 8.34 12.98 8 14 C5.70982814 11.85086512 3.98684411 9.65481588 2.3125 7 C1.87550781 6.319375 1.43851562 5.63875 0.98828125 4.9375 C0 3 0 3 0 0 Z " fill="#222222" transform="translate(486,250)"/>
<path d="M0 0 C-2.94360239 2.47918252 -5.29364798 3.56782487 -9.0625 4.3125 C-9.91972656 4.49425781 -10.77695312 4.67601562 -11.66015625 4.86328125 C-14 5 -14 5 -17 3 C-11.10261508 0.70657253 -6.33393082 -0.34548714 0 0 Z " fill="#161616" transform="translate(362,260)"/>
<path d="M0 0 C-2.59391142 1.40503535 -5.26973914 2.57705808 -8 3.6875 C-8.66 3.95949219 -9.32 4.23148438 -10 4.51171875 C-12.34543601 5.08433496 -13.73437404 4.75352292 -16 4 C-16 3.34 -16 2.68 -16 2 C-9.25 0.875 -9.25 0.875 -7 2 C-7 1.34 -7 0.68 -7 0 C-3.86650268 -1.04449911 -3.01031744 -0.93423645 0 0 Z " fill="#272727" transform="translate(430,529)"/>
<path d="M0 0 C4.77609498 1.64178265 8.79382904 4.26546702 13 7 C12.67 7.66 12.34 8.32 12 9 C7.50985376 7.50328459 3.52151236 5.16631659 0 2 C0 1.34 0 0.68 0 0 Z " fill="#181818" transform="translate(313,310)"/>
<path d="M0 0 C-3.60957611 3.2910841 -6.12637153 4.54663921 -11 5 C-10 2 -10 2 -7.1875 0.25 C-4.03596914 -0.98589446 -3.03070628 -1.28222189 0 0 Z " fill="#282828" transform="translate(302,218)"/>
<path d="M0 0 C4.43458973 1.3937282 6.87378374 3.60582235 10 7 C9.67 7.99 9.34 8.98 9 10 C5.06451569 6.93906776 2.31883213 4.50884026 0 0 Z " fill="#1D1D1D" transform="translate(502,214)"/>
<path d="M0 0 C4.84659077 0.59104765 8.60748167 1.97944157 13 4 C11.328125 5.1171875 11.328125 5.1171875 9 6 C6.421875 5.3203125 6.421875 5.3203125 3.75 4.125 C2.85796875 3.73570312 1.9659375 3.34640625 1.046875 2.9453125 C0.37140625 2.63335937 -0.3040625 2.32140625 -1 2 C-0.67 1.34 -0.34 0.68 0 0 Z " fill="#272727" transform="translate(442,176)"/>
<path d="M0 0 C0.66 0.66 1.32 1.32 2 2 C1.34 2 0.68 2 0 2 C-0.33 3.65 -0.66 5.3 -1 7 C-3.97 6.67 -6.94 6.34 -10 6 C-6.87567603 3.47650757 -3.61939504 1.72743854 0 0 Z " fill="#202020" transform="translate(464,552)"/>
<path d="M0 0 C0.33 0 0.66 0 1 0 C1.3893647 2.60275329 1.76193662 5.20606349 2.125 7.8125 C2.23714844 8.55048828 2.34929687 9.28847656 2.46484375 10.04882812 C3.2265625 15.66015625 3.2265625 15.66015625 1 19 C0.77213542 16.94921875 0.54427083 14.8984375 0.31640625 12.84765625 C0.18113386 10.98859771 0.18113386 10.98859771 -1 10 C-0.91036938 8.30858344 -0.75422324 6.62040398 -0.5625 4.9375 C-0.46066406 4.01839844 -0.35882813 3.09929687 -0.25390625 2.15234375 C-0.17011719 1.44207031 -0.08632812 0.73179687 0 0 Z " fill="#1F1F1F" transform="translate(195,419)"/>
<path d="M0 0 C1.71872538 2.57808807 2.48218488 4.10424011 3.25 7 C3.44078125 7.680625 3.6315625 8.36125 3.828125 9.0625 C4 11 4 11 2 14 C-1.62870159 4.58997722 -1.62870159 4.58997722 0 0 Z " fill="#1D1D1D" transform="translate(489,421)"/>
<path d="M0 0 C0.66 1.32 1.32 2.64 2 4 C1.01 5.485 1.01 5.485 0 7 C-0.38499891 8.65549531 -0.72793135 10.3222433 -1 12 C-1.99 12 -2.98 12 -4 12 C-3.71640113 10.5608866 -3.42278601 9.12374482 -3.125 7.6875 C-2.96257812 6.88699219 -2.80015625 6.08648437 -2.6328125 5.26171875 C-2 3 -2 3 0 0 Z " fill="#252525" transform="translate(332,393)"/>
<path d="M0 0 C-3.42094242 2.28062828 -4.68187222 2.21925007 -8.6875 2.125 C-10.17830078 2.09792969 -10.17830078 2.09792969 -11.69921875 2.0703125 C-12.45847656 2.04710937 -13.21773438 2.02390625 -14 2 C-14.33 1.34 -14.66 0.68 -15 0 C-9.77254141 -1.2063366 -5.23471686 -0.75612577 0 0 Z " fill="#151515" transform="translate(412,572)"/>
<path d="M0 0 C1.58468677 0.45363171 3.16769924 0.91311452 4.75 1.375 C5.63171875 1.63023437 6.5134375 1.88546875 7.421875 2.1484375 C9.76080572 2.9209934 11.83442562 3.83625676 14 5 C10.21180727 6.43410153 7.93478721 5.51009497 4.25 4.0625 C2.77273438 3.49208984 2.77273438 3.49208984 1.265625 2.91015625 C0.51796875 2.60980469 -0.2296875 2.30945313 -1 2 C-0.67 1.34 -0.34 0.68 0 0 Z " fill="#171717" transform="translate(336,470)"/>
<path d="M0 0 C-2.10277123 0.22197585 -4.20732302 0.42713637 -6.3125 0.625 C-7.48425781 0.74101562 -8.65601563 0.85703125 -9.86328125 0.9765625 C-13 1 -13 1 -16 -1 C-4.78301887 -3.18867925 -4.78301887 -3.18867925 0 0 Z " fill="#131313" transform="translate(372,379)"/>
<path d="M0 0 C0.66 0.33 1.32 0.66 2 1 C0.68 2.32 -0.64 3.64 -2 5 C-2 2 -2 2 0 0 Z M-5 4 C-4.34 4.33 -3.68 4.66 -3 5 C-5.97 7.97 -8.94 10.94 -12 14 C-12.66 13.67 -13.32 13.34 -14 13 C-11.03 10.03 -8.06 7.06 -5 4 Z " fill="#DBDBDB" transform="translate(320,356)"/>
<path d="M0 0 C-2.88019276 1.46652017 -5.79308515 2.82047874 -8.75 4.125 C-9.54921875 4.47820312 -10.3484375 4.83140625 -11.171875 5.1953125 C-11.77515625 5.46085937 -12.3784375 5.72640625 -13 6 C-12.66796875 4.11328125 -12.66796875 4.11328125 -12 2 C-7.68177426 -0.91229178 -5.00933778 -1.31196942 0 0 Z " fill="#212121" transform="translate(341,267)"/>
<path d="M0 0 C0.78890625 0.31324219 1.5778125 0.62648437 2.390625 0.94921875 C3.18984375 1.25472656 3.9890625 1.56023437 4.8125 1.875 C5.41578125 2.12636719 6.0190625 2.37773437 6.640625 2.63671875 C5.980625 3.29671875 5.320625 3.95671875 4.640625 4.63671875 C2.0390625 4.39453125 2.0390625 4.39453125 -0.984375 3.76171875 C-1.98726563 3.55804688 -2.99015625 3.354375 -4.0234375 3.14453125 C-5.17972656 2.89316406 -5.17972656 2.89316406 -6.359375 2.63671875 C-3.02020651 -0.4650318 -3.02020651 -0.4650318 0 0 Z " fill="#1A1A1A" transform="translate(426.359375,169.36328125)"/>
<path d="M0 0 C4.29 0.99 8.58 1.98 13 3 C12.67 3.66 12.34 4.32 12 5 C3.42857143 4.14285714 3.42857143 4.14285714 0 2 C0 1.34 0 0.68 0 0 Z " fill="#151515" transform="translate(310,565)"/>
<path d="M0 0 C0.33 0 0.66 0 1 0 C1.13277344 0.60328125 1.26554687 1.2065625 1.40234375 1.828125 C1.57894531 2.62734375 1.75554687 3.4265625 1.9375 4.25 C2.11152344 5.03890625 2.28554688 5.8278125 2.46484375 6.640625 C2.96171595 8.98624999 2.96171595 8.98624999 3.69140625 11.171875 C3.79324219 11.77515625 3.89507812 12.3784375 4 13 C3.34 13.66 2.68 14.32 2 15 C-0.08989546 9.68670645 -1.6112798 5.71271928 0 0 Z " fill="#1A1A1A" transform="translate(293,418)"/>
<path d="M0 0 C1.71056541 2.58430745 2.05220752 3.68321539 1.5390625 6.796875 C1.23742187 7.77140625 0.93578125 8.7459375 0.625 9.75 C0.32851563 10.73484375 0.03203125 11.7196875 -0.2734375 12.734375 C-0.51320313 13.48203125 -0.75296875 14.2296875 -1 15 C-1.66 14.67 -2.32 14.34 -3 14 C-2.28547412 9.23649415 -1.20465156 4.65798604 0 0 Z " fill="#131313" transform="translate(423,392)"/>
<path d="M0 0 C4.51478398 0.53115106 7.34666857 2.36620292 11 5 C10.67 5.66 10.34 6.32 10 7 C6.4124787 5.66749209 3.1635377 4.169283 0 2 C0 1.34 0 0.68 0 0 Z " fill="#191919" transform="translate(302,304)"/>
<path d="M0 0 C0.66 0.66 1.32 1.32 2 2 C1.8125 5.5 1.8125 5.5 1 9 C0.01 9.66 -0.98 10.32 -2 11 C-2.95465783 8.83032311 -3.14401212 7.43671207 -2.3984375 5.17578125 C-1.64129615 3.4315257 -0.82390802 1.71372869 0 0 Z " fill="#232323" transform="translate(244,277)"/>
<path d="M0 0 C4.62 0.99 9.24 1.98 14 3 C11 5 11 5 8.80859375 4.86328125 C7.63490234 4.59064453 7.63490234 4.59064453 6.4375 4.3125 C5.65246094 4.14363281 4.86742187 3.97476563 4.05859375 3.80078125 C2 3 2 3 0 0 Z " fill="#181818" transform="translate(320,529)"/>
<path d="M0 0 C0.99 0.33 1.98 0.66 3 1 C2.71125 1.70125 2.4225 2.4025 2.125 3.125 C0.97866412 6.05452503 -0.02625654 9.00921653 -1 12 C-2.1875 10.5 -2.1875 10.5 -3 8 C-2.27101296 5.21175762 -1.1843275 2.62334908 0 0 Z " fill="#1C1C1C" transform="translate(240,288)"/>
<path d="M0 0 C-1.4638611 4.39158329 -3.97831338 4.87947433 -8 7 C-8 5 -8 3 -8 1 C-2.25 0 -2.25 0 0 0 Z " fill="#161616" transform="translate(325,273)"/>
<path d="M0 0 C1.70884005 1.62339805 3.37446717 3.29319053 5 5 C5 5.66 5 6.32 5 7 C5.66 7 6.32 7 7 7 C6.67 7.99 6.34 8.98 6 10 C3.03595495 7.19195732 0.55500981 4.81684226 -1 1 C-0.67 0.67 -0.34 0.34 0 0 Z " fill="#222222" transform="translate(513,224)"/>
<path d="M0 0 C3.44795223 1.53242321 6.2199038 3.44531701 9 6 C9.64453125 8.1328125 9.64453125 8.1328125 10 10 C9.44570313 9.57847656 8.89140625 9.15695313 8.3203125 8.72265625 C7.59585937 8.17480469 6.87140625 7.62695312 6.125 7.0625 C5.40570313 6.51722656 4.68640625 5.97195312 3.9453125 5.41015625 C2.05642921 3.96035376 2.05642921 3.96035376 0 3 C0 2.01 0 1.02 0 0 Z " fill="#131313" transform="translate(460,226)"/>
<path d="M0 0 C0.66 0.33 1.32 0.66 2 1 C0.66667905 4.99996286 -1.4957827 5.83782337 -5 8 C-5.66 7.34 -6.32 6.68 -7 6 C-2.25 2 -2.25 2 0 2 C0 1.34 0 0.68 0 0 Z " fill="#161616" transform="translate(258,198)"/>
<path d="M0 0 C-4.76052962 1.97387813 -7.96488101 2.0070238 -13 1 C-8.34908395 -1.58384225 -4.74396472 -2.98694075 0 0 Z " fill="#1D1D1D" transform="translate(433,568)"/>
<path d="M0 0 C1.34173403 0.92543709 2.67320159 1.86577405 4 2.8125 C5.11375 3.59560547 5.11375 3.59560547 6.25 4.39453125 C6.8275 4.92433594 7.405 5.45414063 8 6 C8 6.99 8 7.98 8 9 C2.09815951 5.65030675 2.09815951 5.65030675 0 3 C0 2.01 0 1.02 0 0 Z " fill="#191919" transform="translate(245,527)"/>
<path d="M0 0 C3 1 3 1 4.75 3.375 C6 6 6 6 5 9 C1.7457985 6.16569547 0.4793247 4.31392226 0 0 Z " fill="#242424" transform="translate(215,488)"/>
<path d="M0 0 C0.99 0.33 1.98 0.66 3 1 C-0.1254959 3.64465038 -3.08788267 4.84414715 -7 6 C-7.66 5.34 -8.32 4.68 -9 4 C-6.69631264 2.93347808 -4.35981813 1.93578995 -2 1 C-1.34 1.33 -0.68 1.66 0 2 C0 1.34 0 0.68 0 0 Z " fill="#1A1A1A" transform="translate(399,433)"/>
<path d="M0 0 C-1.24976756 3.65316671 -1.67098753 4.78065836 -5 7 C-7.1875 6.625 -7.1875 6.625 -9 6 C-7.8803014 4.99406757 -6.7540588 3.9954151 -5.625 3 C-4.68527344 2.1646875 -4.68527344 2.1646875 -3.7265625 1.3125 C-2 0 -2 0 0 0 Z " fill="#232323" transform="translate(343,384)"/>
<path d="M0 0 C0.65234375 1.765625 0.65234375 1.765625 1 4 C0.00390625 5.921875 0.00390625 5.921875 -1.4375 7.75 C-1.91058594 8.36359375 -2.38367188 8.9771875 -2.87109375 9.609375 C-3.24363281 10.06828125 -3.61617188 10.5271875 -4 11 C-4.66 10.67 -5.32 10.34 -6 10 C-4.34832443 6.4213696 -2.21713508 3.25179812 0 0 Z " fill="#1F1F1F" transform="translate(512,507)"/>
<path d="M0 0 C0.33 0.66 0.66 1.32 1 2 C0.34 2 -0.32 2 -1 2 C-1.061875 2.61875 -1.12375 3.2375 -1.1875 3.875 C-2 6 -2 6 -4.5625 7.25 C-5.366875 7.4975 -6.17125 7.745 -7 8 C-6.875 6.25 -6.875 6.25 -6 4 C-2.9375 1.75 -2.9375 1.75 0 0 Z " fill="#292929" transform="translate(343,304)"/>
<path d="M0 0 C0 0.66 0 1.32 0 2 C-4.76052962 3.97387813 -7.96488101 4.0070238 -13 3 C-13 2.67 -13 2.34 -13 2 C-11.39658445 1.66307215 -9.79223445 1.33058907 -8.1875 1 C-7.29417969 0.814375 -6.40085937 0.62875 -5.48046875 0.4375 C-3 0 -3 0 0 0 Z " fill="#303030" transform="translate(536,299)"/>
<path d="M0 0 C2.2477975 2.05233685 3.0022242 3.00667261 4 6 C4.65129797 7.34090759 5.31513275 8.67592331 6 10 C5.01 10.33 4.02 10.66 3 11 C3 10.01 3 9.02 3 8 C2.34 8 1.68 8 1 8 C1 6.68 1 5.36 1 4 C0.34 4 -0.32 4 -1 4 C-0.67 2.68 -0.34 1.36 0 0 Z " fill="#272727" transform="translate(532,252)"/>
<path d="M0 0 C3.93673644 1.31224548 6.22719294 2.91910327 9 6 C4.28093812 6 2.72962969 4.71245796 -1 2 C-0.67 1.34 -0.34 0.68 0 0 Z " fill="#1E1E1E" transform="translate(476,192)"/>
<path d="M0 0 C0.99 0.33 1.98 0.66 3 1 C3 1.66 3 2.32 3 3 C4.32 3.66 5.64 4.32 7 5 C6.01 6.485 6.01 6.485 5 8 C3.02 5.69 1.04 3.38 -1 1 C-0.67 0.67 -0.34 0.34 0 0 Z " fill="#202020" transform="translate(272,501)"/>
<path d="M0 0 C0.99 0.66 1.98 1.32 3 2 C-0.465 4.97 -0.465 4.97 -4 8 C-4.66 7.34 -5.32 6.68 -6 6 C-5.195625 5.38125 -4.39125 4.7625 -3.5625 4.125 C-0.96125481 2.25835959 -0.96125481 2.25835959 0 0 Z " fill="#202020" transform="translate(408,425)"/>
<path d="M0 0 C2.31 1.65 4.62 3.3 7 5 C6.67 5.66 6.34 6.32 6 7 C1.32307692 5.52307692 1.32307692 5.52307692 -0.3125 2.875 C-0.539375 2.25625 -0.76625 1.6375 -1 1 C-0.67 0.67 -0.34 0.34 0 0 Z " fill="#1D1D1D" transform="translate(314,456)"/>
<path d="M0 0 C-0.99 0 -1.98 0 -3 0 C-3 0.66 -3 1.32 -3 2 C-5.64 2.33 -8.28 2.66 -11 3 C-11.33 2.01 -11.66 1.02 -12 0 C-3.42857143 -1.28571429 -3.42857143 -1.28571429 0 0 Z " fill="#141414" transform="translate(389,439)"/>
<path d="M0 0 C0.99 0.33 1.98 0.66 3 1 C3.94921875 3.06640625 3.94921875 3.06640625 4.6875 5.5625 C4.93886719 6.38878906 5.19023438 7.21507812 5.44921875 8.06640625 C5.63097656 8.70449219 5.81273437 9.34257812 6 10 C5.01 10.495 5.01 10.495 4 11 C2.68 7.37 1.36 3.74 0 0 Z " fill="#171717" transform="translate(521,406)"/>
<path d="M0 0 C1.5625 1.4375 1.5625 1.4375 3 4 C2.96846324 7.05380927 2.53266629 9.99653222 2 13 C1.67 13 1.34 13 1 13 C0.63779734 11.20994059 0.28547531 9.41787943 -0.0625 7.625 C-0.25972656 6.62726563 -0.45695312 5.62953125 -0.66015625 4.6015625 C-1 2 -1 2 0 0 Z " fill="#181818" transform="translate(459,321)"/>
<path d="M0 0 C4.12751449 0.60698743 7.3321148 2.03810791 11 4 C10.01 4.66 9.02 5.32 8 6 C5.36 4.68 2.72 3.36 0 2 C0 1.34 0 0.68 0 0 Z " fill="#171717" transform="translate(448,220)"/>
<path d="M0 0 C0.99 0.33 1.98 0.66 3 1 C0.38485683 3.12038635 -2.19637616 5.13091744 -5 7 C-5.33 6.01 -5.66 5.02 -6 4 C-3.1875 1.9375 -3.1875 1.9375 0 0 Z " fill="#1F1F1F" transform="translate(267,192)"/>
<path d="M0 0 C3.27286682 2.7819368 4.96427697 6.27954067 7 10 C6.01 10.33 5.02 10.66 4 11 C1.52214277 7.33708062 0.51035831 4.3890815 0 0 Z " fill="#2C2C2C" transform="translate(221,496)"/>
<path d="M0 0 C0.66 0.66 1.32 1.32 2 2 C1.9765625 4.6015625 1.9765625 4.6015625 1.625 7.625 C1.51414062 8.62789063 1.40328125 9.63078125 1.2890625 10.6640625 C1.19367187 11.43492187 1.09828125 12.20578125 1 13 C-0.9078584 9.8250906 -1.1609041 7.89414789 -0.625 4.25 C-0.51414062 3.45078125 -0.40328125 2.6515625 -0.2890625 1.828125 C-0.19367187 1.22484375 -0.09828125 0.6215625 0 0 Z " fill="#181818" transform="translate(529,459)"/>
<path d="M0 0 C2 3 2 3 2.5 5.625 C2.665 6.40875 2.83 7.1925 3 8 C3.66 8.33 4.32 8.66 5 9 C4.01 9.66 3.02 10.32 2 11 C1.47007308 9.54494642 0.9513211 8.08581873 0.4375 6.625 C0.14746094 5.81289063 -0.14257812 5.00078125 -0.44140625 4.1640625 C-1 2 -1 2 0 0 Z " fill="#1A1A1A" transform="translate(239,447)"/>
<path d="M0 0 C-0.1875 1.8125 -0.1875 1.8125 -1 4 C-3.4375 5.8125 -3.4375 5.8125 -6 7 C-6.66 6.67 -7.32 6.34 -8 6 C-7.0479279 4.99403703 -6.08812654 3.99538437 -5.125 3 C-4.59132813 2.443125 -4.05765625 1.88625 -3.5078125 1.3125 C-2 0 -2 0 0 0 Z " fill="#252525" transform="translate(439,449)"/>
<path d="M0 0 C0.33 0 0.66 0 1 0 C1 3.3 1 6.6 1 10 C0.01 10.33 -0.98 10.66 -2 11 C-1.85957123 9.35369672 -1.71250671 7.70795821 -1.5625 6.0625 C-1.48128906 5.14597656 -1.40007812 4.22945313 -1.31640625 3.28515625 C-1 1 -1 1 0 0 Z " fill="#161616" transform="translate(230,337)"/>
<path d="M0 0 C3.67420866 0.30618405 4.78135513 0.75771784 7.3125 3.5625 C8.1478125 4.7690625 8.1478125 4.7690625 9 6 C6 6 6 6 3 4 C3 3.34 3 2.68 3 2 C2.01 2 1.02 2 0 2 C0 1.34 0 0.68 0 0 Z " fill="#151515" transform="translate(402,304)"/>
<path d="M0 0 C2.45823172 3.68734758 3.01242616 6.69699971 4 11 C3.01 11 2.02 11 1 11 C-0.17571451 7.32589215 -0.07366746 3.83070817 0 0 Z " fill="#141414" transform="translate(509,292)"/>
<path d="M0 0 C2.25245881 2.68841859 3.88213958 4.64641875 5 8 C4.01 8.33 3.02 8.66 2 9 C0.4375 6.1875 0.4375 6.1875 -1 3 C-0.67 2.01 -0.34 1.02 0 0 Z " fill="#262626" transform="translate(496,264)"/>
<path d="M0 0 C0.99 0.33 1.98 0.66 3 1 C0.16569547 4.2542015 -1.68607774 5.5206753 -6 6 C-4 4 -2 2 0 0 Z " fill="#1B1B1B" transform="translate(281,228)"/>
<path d="M0 0 C2.5625 2.25 2.5625 2.25 5 5 C4.8125 7.3125 4.8125 7.3125 4 9 C0 4.5 0 4.5 0 0 Z " fill="#181818" transform="translate(232,512)"/>
<path d="M0 0 C6.625 -0.125 6.625 -0.125 10 1 C10 1.99 10 2.98 10 4 C6.7 3.01 3.4 2.02 0 1 C0 0.67 0 0.34 0 0 Z " fill="#2B2B2B" transform="translate(347,436)"/>
<path d="M0 0 C0.94875 0.350625 1.8975 0.70125 2.875 1.0625 C2.875 2.0525 2.875 3.0425 2.875 4.0625 C-2.875 2.3125 -2.875 2.3125 -5.125 0.0625 C-3.125 -0.9375 -3.125 -0.9375 0 0 Z " fill="#1F1F1F" transform="translate(413.125,265.9375)"/>
<path d="M0 0 C0.33 0.99 0.66 1.98 1 3 C-1.31 4.98 -3.62 6.96 -6 9 C-6.66 8.67 -7.32 8.34 -8 8 C-5.36 5.36 -2.72 2.72 0 0 Z " fill="#292929" transform="translate(273,235)"/>
<path d="M0 0 C-2.79908133 2.79908133 -5.13081763 2.72362983 -9 3 C-9.66 2.34 -10.32 1.68 -11 1 C-6.87831311 -0.62950412 -4.29299643 -1.26264601 0 0 Z " fill="#212121" transform="translate(327,209)"/>
<path d="M0 0 C2.95409701 1.37154504 5.44008376 2.98863724 8 5 C6.25 5.75 6.25 5.75 4 6 C1.75 4.1875 1.75 4.1875 0 2 C0 1.34 0 0.68 0 0 Z " fill="#282828" transform="translate(284,511)"/>
<path d="M0 0 C2.15377564 2.62198774 3.40072174 4.64404172 4 8 C3.01 8.33 2.02 8.66 1 9 C-0.4783226 6.04335481 -0.06032783 3.25770263 0 0 Z " fill="#343434" transform="translate(297,432)"/>
<path d="M0 0 C4.67692308 1.47692308 4.67692308 1.47692308 6.3125 4.125 C6.539375 4.74375 6.76625 5.3625 7 6 C6.34 6.66 5.68 7.32 5 8 C2.525 4.04 2.525 4.04 0 0 Z " fill="#1F1F1F" transform="translate(438,286)"/>
<path d="M0 0 C4.455 1.98 4.455 1.98 9 4 C8.34 4.66 7.68 5.32 7 6 C4.36 4.68 1.72 3.36 -1 2 C-0.67 1.34 -0.34 0.68 0 0 Z " fill="#141414" transform="translate(281,553)"/>
<path d="M0 0 C1.32 1.32 2.64 2.64 4 4 C3.67 4.99 3.34 5.98 3 7 C2.34 7 1.68 7 1 7 C0.34 5.02 -0.32 3.04 -1 1 C-0.67 0.67 -0.34 0.34 0 0 Z " fill="#232323" transform="translate(481,408)"/>
<path d="M0 0 C0.33 0 0.66 0 1 0 C0.67 2.97 0.34 5.94 0 9 C-0.66 9 -1.32 9 -2 9 C-2.33 9.66 -2.66 10.32 -3 11 C-2.44894091 7.0507432 -1.61064629 3.65079826 0 0 Z " fill="#151515" transform="translate(296,381)"/>
<path d="M0 0 C0 0.33 0 0.66 0 1 C-7.42857143 3.42857143 -7.42857143 3.42857143 -11 2 C-8.74490247 -2.51019507 -4.15738698 -0.70597137 0 0 Z " fill="#1D1D1D" transform="translate(365,299)"/>
<path d="M0 0 C0.66 0 1.32 0 2 0 C4.09230769 4.43076923 4.09230769 4.43076923 3.625 7.3125 C3.41875 7.869375 3.2125 8.42625 3 9 C0.23776722 6.23776722 0.42143709 3.79293383 0 0 Z " fill="#151515" transform="translate(541,273)"/>
<path d="M0 0 C4.75 0.875 4.75 0.875 7 2 C7 2.99 7 3.98 7 5 C2.25 3.125 2.25 3.125 0 2 C0 1.34 0 0.68 0 0 Z " fill="#141414" transform="translate(272,549)"/>
<path d="M0 0 C0.99 0.66 1.98 1.32 3 2 C0.69 3.65 -1.62 5.3 -4 7 C-4 6.01 -4 5.02 -4 4 C-2.68 3.34 -1.36 2.68 0 2 C0 1.34 0 0.68 0 0 Z " fill="#242424" transform="translate(464,506)"/>
<path d="M0 0 C2.50037734 2.17424117 3.43628586 3.73045798 4 7 C3.01 7 2.02 7 1 7 C-0.0625 4.625 -0.0625 4.625 -1 2 C-0.67 1.34 -0.34 0.68 0 0 Z " fill="#202020" transform="translate(205,464)"/>
<path d="M0 0 C1.98 1.65 3.96 3.3 6 5 C4.68 5.33 3.36 5.66 2 6 C1.01 4.68 0.02 3.36 -1 2 C-0.67 1.34 -0.34 0.68 0 0 Z " fill="#303030" transform="translate(306,448)"/>
<path d="M0 0 C2.50037734 2.17424117 3.43628586 3.73045798 4 7 C3.01 7 2.02 7 1 7 C0.67 4.69 0.34 2.38 0 0 Z " fill="#232323" transform="translate(485,414)"/>
<path d="M0 0 C-3.625 3 -3.625 3 -7 3 C-7 2.01 -7 1.02 -7 0 C-3.86650268 -1.04449911 -3.01031744 -0.93423645 0 0 Z " fill="#1E1E1E" transform="translate(340,346)"/>
<path d="M0 0 C0.33 0 0.66 0 1 0 C2.0070238 5.03511899 1.97387813 8.23947038 0 13 C-0.33 13 -0.66 13 -1 13 C-1.07654536 8.48382401 -1.10228696 4.40914783 0 0 Z " fill="#BDBDBD" transform="translate(196,315)"/>
<path d="M0 0 C0.66 0 1.32 0 2 0 C1.67 2.64 1.34 5.28 1 8 C0.01 8 -0.98 8 -2 8 C-1.34 5.36 -0.68 2.72 0 0 Z " fill="#1B1B1B" transform="translate(234,308)"/>
<path d="M0 0 C0.66 0 1.32 0 2 0 C1.50168276 3.68754757 0.89932357 5.60490662 -2 8 C-2.33 7.34 -2.66 6.68 -3 6 C-2.06553465 3.96855359 -1.06775224 1.96466413 0 0 Z " fill="#232323" transform="translate(225,235)"/>
<path d="M0 0 C0.33 0.66 0.66 1.32 1 2 C0.67 2.99 0.34 3.98 0 5 C-3.0625 6.1875 -3.0625 6.1875 -6 7 C-4.02 4.69 -2.04 2.38 0 0 Z " fill="#333333" transform="translate(498,525)"/>
<path d="M0 0 C0.66 0.66 1.32 1.32 2 2 C1.625 5.125 1.625 5.125 1 8 C0.01 8.33 -0.98 8.66 -2 9 C-1.34 6.03 -0.68 3.06 0 0 Z " fill="#1A1A1A" transform="translate(526,475)"/>
<path d="M0 0 C1.98 1.65 3.96 3.3 6 5 C5.67 5.66 5.34 6.32 5 7 C3.02 5.35 1.04 3.7 -1 2 C-0.67 1.34 -0.34 0.68 0 0 Z " fill="#111111" transform="translate(501,375)"/>
<path d="M0 0 C0.33 0 0.66 0 1 0 C1 2.31 1 4.62 1 7 C-0.98 7.99 -0.98 7.99 -3 9 C-2.01 6.03 -1.02 3.06 0 0 Z " fill="#D4D4D4" transform="translate(212,263)"/>
<path d="M0 0 C0.66 0.33 1.32 0.66 2 1 C1.34 2.98 0.68 4.96 0 7 C-0.99 7 -1.98 7 -3 7 C-1.125 2.25 -1.125 2.25 0 0 Z " fill="#1D1D1D" transform="translate(254,259)"/>
<path d="M0 0 C0.66 0 1.32 0 2 0 C2 0.66 2 1.32 2 2 C2.99 2.33 3.98 2.66 5 3 C4.34 4.32 3.68 5.64 3 7 C0 2.25 0 2.25 0 0 Z " fill="#222222" transform="translate(527,246)"/>
<path d="M0 0 C0.66 0.66 1.32 1.32 2 2 C0.35 3.65 -1.3 5.3 -3 7 C-3.33 6.01 -3.66 5.02 -4 4 C-3.34 4 -2.68 4 -2 4 C-1.34 2.68 -0.68 1.36 0 0 Z " fill="#181818" transform="translate(238,218)"/>
<path d="M0 0 C-1.32 1.32 -2.64 2.64 -4 4 C-5.32 3.01 -6.64 2.02 -8 1 C-2.25 -1.125 -2.25 -1.125 0 0 Z " fill="#D9D9D9" transform="translate(306,178)"/>
</svg>
